<?xml version="1.0" standalone="no"?>
<!DOCTYPE svg PUBLIC "-//W3C//DTD SVG 20010904//EN"
 "http://www.w3.org/TR/2001/REC-SVG-20010904/DTD/svg10.dtd">
<svg version="1.0" xmlns="http://www.w3.org/2000/svg"
 width="700.000000pt" height="700.000000pt" viewBox="0 0 700.000000 700.000000"
 preserveAspectRatio="xMidYMid meet">
<metadata>
Created by potrace 1.14, written by Peter Selinger 2001-2017
</metadata>
<g transform="translate(0.000000,700.000000) scale(0.100000,-0.100000)"
fill="#000000" stroke="none">
<path d="M4229 6996 c-2 -2 -29 -7 -60 -10 -31 -4 -65 -8 -75 -10 -11 -2 -44
-7 -75 -10 -31 -4 -65 -8 -75 -10 -11 -2 -46 -7 -79 -10 -33 -4 -85 -11 -115
-16 -30 -5 -77 -11 -105 -15 -27 -3 -61 -7 -75 -10 -14 -2 -52 -7 -85 -10 -32
-4 -62 -8 -65 -10 -3 -1 -35 -6 -72 -9 -37 -4 -80 -9 -95 -12 -15 -2 -41 -6
-58 -9 -16 -2 -56 -7 -88 -10 -32 -4 -67 -8 -78 -10 -18 -4 -204 -29 -289 -40
-51 -6 -271 -36 -300 -40 -63 -9 -108 -15 -145 -19 -51 -7 -123 -16 -155 -21
-14 -2 -50 -7 -80 -10 -30 -3 -62 -8 -70 -10 -8 -2 -42 -7 -75 -11 -33 -3 -69
-8 -80 -9 -11 -2 -76 -11 -145 -20 -69 -9 -136 -18 -150 -20 -14 -2 -50 -6
-80 -10 -30 -3 -80 -10 -110 -15 -30 -5 -77 -11 -105 -15 -27 -3 -61 -7 -75
-10 -14 -2 -52 -7 -85 -10 -32 -4 -62 -8 -65 -10 -3 -1 -35 -6 -72 -9 -37 -4
-77 -9 -90 -11 -13 -2 -79 -11 -148 -20 -69 -9 -141 -19 -160 -21 -65 -10 -75
-11 -130 -18 -30 -4 -66 -9 -80 -11 -14 -2 -66 -9 -116 -15 l-90 -12 0 -2939
c0 -2647 2 -2939 15 -2943 14 -4 72 -13 214 -31 20 -3 53 -7 73 -10 20 -2 54
-7 75 -10 22 -3 58 -8 82 -11 23 -3 53 -7 67 -9 41 -6 113 -17 143 -21 73 -9
159 -21 217 -29 14 -2 63 -9 110 -15 47 -6 99 -12 115 -15 17 -2 98 -13 180
-25 83 -11 168 -23 190 -26 22 -3 51 -7 65 -9 14 -2 63 -9 110 -15 47 -6 96
-13 110 -15 14 -2 43 -6 65 -9 22 -3 87 -12 145 -20 58 -9 128 -18 155 -22 28
-3 59 -7 70 -9 11 -1 47 -6 80 -10 33 -4 69 -9 79 -11 11 -2 56 -8 100 -14 45
-6 92 -13 106 -15 14 -2 50 -7 80 -11 30 -4 64 -8 75 -10 11 -1 38 -5 60 -8
22 -3 56 -8 75 -11 19 -2 55 -7 80 -10 25 -4 56 -8 70 -10 14 -2 63 -9 110
-15 47 -7 94 -13 105 -15 11 -1 47 -6 80 -9 33 -4 67 -9 75 -11 8 -2 33 -6 55
-9 22 -3 78 -10 125 -16 47 -6 96 -13 110 -15 14 -2 63 -9 110 -15 47 -6 96
-13 110 -15 14 -3 45 -7 70 -10 75 -10 114 -15 147 -21 l33 -6 2 302 3 303
1115 1 c1099 2 1116 2 1170 22 142 53 243 160 293 308 15 47 17 5052 2 5126
-35 166 -174 305 -341 343 -47 10 -280 13 -1151 12 l-1093 -1 0 293 c0 277 -1
293 -18 293 -10 0 -21 -2 -23 -4z m2292 -871 c23 -16 53 -50 66 -74 l23 -44 0
-2486 c0 -1679 -3 -2498 -10 -2523 -14 -50 -55 -97 -105 -119 -38 -18 -94 -19
-1132 -19 l-1093 0 0 964 0 963 53 48 c28 26 87 81 130 123 l77 77 113 -111
c138 -137 255 -236 268 -229 5 4 9 12 9 20 0 8 11 49 25 92 l24 77 -62 55
c-34 31 -103 98 -153 150 l-92 94 77 101 c226 297 409 687 481 1023 25 117 24
147 -5 149 -11 1 -52 5 -91 8 l-71 7 -8 -43 c-4 -24 -9 -56 -12 -73 -9 -55
-72 -253 -114 -357 -75 -190 -203 -417 -328 -585 l-54 -72 -32 42 c-27 36 -95
138 -140 212 -6 11 -31 55 -54 97 l-41 77 0 386 0 385 38 0 c20 0 292 1 603 1
527 0 567 1 571 17 2 9 3 53 3 97 l-1 80 -406 0 -406 0 0 85 c0 47 -1 90 -1
96 -1 7 -33 10 -88 10 l-88 0 -5 -96 -5 -95 -107 -1 -108 0 0 712 0 711 1104
-1 1104 -1 43 -30z m-2691 -2207 l0 -148 -72 -1 c-40 0 -127 -2 -193 -4 -66
-2 -135 -4 -152 -4 l-33 -1 0 -618 0 -618 -42 2 c-24 2 -101 6 -173 9 -71 4
-133 9 -136 11 -3 2 -5 269 -5 595 1 325 -2 595 -5 601 -6 9 -84 10 -324 5
l-70 -2 -3 138 c-2 125 -1 137 15 138 10 0 41 2 68 4 28 2 138 6 245 10 107 3
238 8 290 10 52 2 178 6 280 10 102 3 186 7 187 8 1 1 29 2 62 3 l61 0 0 -148z
m-1646 68 c209 -50 310 -178 303 -387 -3 -71 -8 -96 -32 -145 -35 -71 -105
-143 -171 -177 l-48 -24 31 -16 c44 -23 92 -83 123 -152 28 -63 33 -79 75
-240 15 -55 38 -137 51 -181 25 -86 29 -108 17 -101 -5 3 -75 8 -158 12 -82 4
-153 9 -157 11 -11 7 -55 153 -89 293 -53 219 -86 257 -232 267 l-87 7 0 -104
c0 -57 -2 -180 -3 -274 l-2 -170 -105 4 c-58 2 -116 5 -130 6 -14 1 -32 3 -40
4 -13 1 -15 82 -15 669 -1 426 3 669 9 674 6 4 33 10 61 14 27 3 59 8 70 10
11 2 63 7 115 10 52 4 96 8 98 9 12 10 259 -5 316 -19z m-1103 -10 c72 -7 189
-40 189 -53 0 -3 -9 -41 -21 -86 -42 -169 -38 -158 -60 -146 -74 39 -230 57
-305 34 -62 -18 -89 -49 -100 -114 -10 -53 62 -118 186 -170 239 -100 336
-208 348 -386 12 -204 -93 -350 -293 -406 -71 -20 -253 -17 -335 5 -83 22
-180 65 -180 80 1 17 47 216 51 221 3 2 28 -7 56 -20 150 -72 328 -77 386 -11
33 37 38 61 28 138 -1 3 -13 21 -28 38 -17 21 -75 56 -170 102 -110 54 -156
82 -198 123 -206 199 -111 548 172 631 58 17 165 31 203 28 14 -2 46 -5 71 -8z
m3307 -804 c-20 -26 -108 -112 -113 -112 -3 0 -5 70 -5 157 l0 156 66 -92 c57
-80 64 -94 52 -109z"/>
<path d="M5313 3793 c-12 -38 -44 -144 -72 -238 -28 -93 -58 -188 -65 -210 -7
-22 -25 -78 -39 -125 -61 -206 -159 -526 -164 -540 -3 -8 -7 -20 -8 -26 -2 -7
-19 -63 -38 -125 -61 -196 -127 -417 -127 -426 0 -6 357 -9 400 -4 9 1 22 45
81 259 l52 192 254 0 c139 0 253 -2 253 -4 0 -9 131 -441 135 -445 6 -5 414
-5 420 0 2 3 -2 25 -9 49 -53 169 -158 510 -236 760 -51 162 -100 322 -110
355 -10 33 -50 164 -90 290 -40 127 -77 247 -82 267 l-10 37 -262 1 -263 0
-20 -67z m305 -378 c17 -66 50 -183 72 -260 23 -77 48 -162 55 -190 8 -27 19
-64 24 -82 l9 -32 -194 -3 c-168 -3 -193 -1 -189 12 55 191 130 469 151 565
10 44 19 83 20 88 1 4 2 17 3 30 3 36 15 4 49 -128z"/>
<path d="M1920 3772 c-25 -1 -60 -5 -77 -7 l-33 -6 0 -193 0 -192 88 2 c109 2
163 17 206 54 47 42 69 93 67 157 -3 127 -94 194 -251 185z"/>
</g>
</svg>
